ffmpeg version 3.4.8-0ubuntu0.2 Copyright (c) 2000-2020 the FFmpeg developers
  built with gcc 7 (Ubuntu 7.5.0-3ubuntu1~18.04)
  configuration: --prefix=/usr --extra-version=0ubuntu0.2 --toolchain=hardened --libdir=/usr/lib/x86_64-linux-gnu --incdir=/usr/include/x86_64-linux-gnu --enable-gpl --disable-stripping --enable-avresample --enable-avisynth --enable-gnutls --enable-ladspa --enable-libass --enable-libbluray --enable-libbs2b --enable-libcaca --enable-libcdio --enable-libflite --enable-libfontconfig --enable-libfreetype --enable-libfribidi --enable-libgme --enable-libgsm --enable-libmp3lame --enable-libmysofa --enable-libopenjpeg --enable-libopenmpt --enable-libopus --enable-libpulse --enable-librubberband --enable-librsvg --enable-libshine --enable-libsnappy --enable-libsoxr --enable-libspeex --enable-libssh --enable-libtheora --enable-libtwolame --enable-libvorbis --enable-libvpx --enable-libwavpack --enable-libwebp --enable-libx265 --enable-libxml2 --enable-libxvid --enable-libzmq --enable-libzvbi --enable-omx --enable-openal --enable-opengl --enable-sdl2 --enable-libdc1394 --enable-libdrm --enable-libiec61883 --enable-chromaprint --enable-frei0r --enable-libopencv --enable-libx264 --enable-shared
  libavutil      55. 78.100 / 55. 78.100
  libavcodec     57.107.100 / 57.107.100
  libavformat    57. 83.100 / 57. 83.100
  libavdevice    57. 10.100 / 57. 10.100
  libavfilter     6.107.100 /  6.107.100
  libavresample   3.  7.  0 /  3.  7.  0
  libswscale      4.  8.100 /  4.  8.100
  libswresample   2.  9.100 /  2.  9.100
  libpostproc    54.  7.100 / 54.  7.100
[h264 @ 0x563345ccb7e0] left block unavailable for requested intra4x4 mode -1
[h264 @ 0x563345ccb7e0] error while decoding MB 0 11, bytestream 2380
[h264 @ 0x563345ccb7e0] concealing 457 DC, 457 AC, 457 MV errors in I frame
Input #0, mov,mp4,m4a,3gp,3g2,mj2, from '/root/results/2020-11-30_15:09:44/cases/41/test-nyan_cat-trimmed-41.mp4':
  Metadata:
    major_brand     : isom
    minor_version   : 512
    compatible_brands: isomiso2avc1mp41
  Duration: 00:00:00.68, start: 0.000000, bitrate: 371 kb/s
    Stream #0:0(und): Video: h264 (High) (avc1 / 0x31637661), yuv420p, 540x360 [SAR 1:1 DAR 3:2], 225 kb/s, 29.97 fps, 29.97 tbr, 30k tbn, 59.94 tbc (default)
    Metadata:
      handler_name    : Core Media Video
    Stream #0:1(und): Audio: aac (mp4a / 0x6134706D), 44100 Hz, stereo, fltp (default)
    Metadata:
      handler_name    : Core Media Audio
Stream mapping:
  Stream #0:0 -> #0:0 (h264 (native) -> mpeg4 (native))
  Stream #0:1 -> #0:1 (aac (native) -> mp3 (libmp3lame))
Press [q] to stop, [?] for help
[h264 @ 0x563345cce900] left block unavailable for requested intra4x4 mode -1
[h264 @ 0x563345cce900] error while decoding MB 0 11, bytestream 2380
[h264 @ 0x563345cce900] concealing 457 DC, 457 AC, 457 MV errors in I frame
[h264 @ 0x563345e083c0] Reference 3 >= 3
[h264 @ 0x563345e083c0] error while decoding MB 19 7, bytestream 598
[h264 @ 0x563345e083c0] concealing 574 DC, 574 AC, 574 MV errors in B frame
Finishing stream 0:1 without any data written to it.
Output #0, avi, to '/root/results/2020-11-30_15:09:44/cases/41/output-nyan_cat-trimmed-41.avi':
  Metadata:
    major_brand     : isom
    minor_version   : 512
    compatible_brands: isomiso2avc1mp41
    ISFT            : Lavf57.83.100
    Stream #0:0(und): Video: mpeg4 (FMP4 / 0x34504D46), yuv420p(progressive), 540x360 [SAR 1:1 DAR 3:2], q=2-31, 200 kb/s, 29.97 fps, 29.97 tbn, 29.97 tbc (default)
    Metadata:
      handler_name    : Core Media Video
      encoder         : Lavc57.107.100 mpeg4
    Side data:
      cpb: bitrate max/min/avg: 0/0/200000 buffer size: 0 vbv_delay: -1
    Stream #0:1(und): Audio: mp3 (libmp3lame) (U[0][0][0] / 0x0055), 44100 Hz, stereo, fltp (default)
    Metadata:
      handler_name    : Core Media Audio
      encoder         : Lavc57.107.100 libmp3lame
frame=   20 fps=0.0 q=7.8 Lsize=      77kB time=00:00:00.66 bitrate= 941.4kbits/s speed=5.96x    
video:66kB audio:0kB subtitle:0kB other streams:0kB global headers:0kB muxing overhead: 15.414462%
